# xmcd CD database file
#
# Track frame offsets:
#	150
#	55741
#	86500
#	96609
#	161905
#	176254
#	196042
#	216724
#	234457
#	240547
#	276255
#	285744
#
# Disc length: 4059 seconds
#
# Revision: 0
# Processed by: cddbd v1.5.2PL0 Copyright (c) Steve Scherf et al.
# Submitted via: CDex 1.70beta2
#
DISCID=ae0fd90c
DTITLE=Manfred Schoof - Manfred Schoof zum 70. Geburtstag - WAV
DYEAR=1900
DGENRE=Jazz
TTITLE0=Kurt Edelhagen Orchester - Moods In Three Colours
TTITLE1=Paul Shigihara - Tristan (Live)
TTITLE2=Manfred Schoof Quintett - Titel 4 (WDR Live)
TTITLE3=Manfred Schoof Quintett - Titel 5 (WDR Live)
TTITLE4=Fritz Münzer Quintett - Grashopper (HR Live)
TTITLE5=Fritz Münzer Quintett - Night At Ghandi's (HR Live)
TTITLE6=Jazz Combo der Staatlichen Musikhochschule Köln - Sandu (Live)
TTITLE7=Kur Edelhagen Orchester - Little Girl Blue
TTITLE8=Manfred Schoof Quartett - Requiem (für einen jungen Dichter)
TTITLE9=Kurt Edelhagen Orchester - A Spread Sonority
TTITLE10=Manfred Schoof Quartett - Constellation # 6 (WDR Live)
TTITLE11=Manfred Schoof Quartett - Constellation # 4 (WDR Live)
EXTD=
EXTT0=
EXTT1=
EXTT2=
EXTT3=
EXTT4=
EXTT5=
EXTT6=
EXTT7=
EXTT8=
EXTT9=
EXTT10=
EXTT11=
PLAYORDER=
